# xmcd CD database file
#
# Track frame offsets:
#	150
#	21095
#	41885
#	63238
#	85135
#	109728
#	128448
#	147183
#	170190
#	191545
#	219053
#	240723
#
# Disc length: 3514 seconds
#
# Revision: 4
# Processed by: cddbd v1.5.2PL0 Copyright (c) Steve Scherf et al.
# Submitted via: CDex 1.70beta3
#
DISCID=a00db80c
DTITLE=HY - Confidence
DYEAR=2006
DGENRE=JPop
TTITLE0=繝｢繝弱け繝ｭ
TTITLE1=繝昴・繧ｫ繝ｼ繝輔ぉ繧､繧ｹ
TTITLE2=canvas
TTITLE3=縺ゅ↑縺溘↓繧ｭ繧ｹ
TTITLE4=I JUST DO IT FOR YOU
TTITLE5=4WD
TTITLE6=scene
TTITLE7=(Te to Te)
TTITLE8=譽ｮ
TTITLE9=NAO
TTITLE10=HY LOVE SUMMER
TTITLE11=縺薙・迚ｩ隱・EXTD=YEAR: 2006
EXTD=E11=縺薙・迚ｩ隱・EXTD=YEAR: 2006
EXTT0=
EXTT1=
EXTT2=
EXTT3=
EXTT4=
EXTT5=
EXTT6=
EXTT7=
EXTT8=
EXTT9=
EXTT10=
EXTT11=
PLAYORDER=
